  0
SECTION
  2
HEADER
  9
$ACADVER
  1
AC1009
  9
$FILLMODE
 70
 0
  9
$SPLFRAME
 70
 1
  9
$EXTMIN
 10
0
 20
0
 30
0.0
  9
$EXTMAX
 10
1058.33
 20
1058.33
 30
0.0
  0
ENDSEC
  0
SECTION
  2
TABLES
  0
TABLE
  2
LAYER
 70
1
  0
LAYER
  2
0
 70
     0
 62
     7
  6
CONTINUOUS
  0
ENDTAB
  0
ENDSEC
  0
SECTION
  2
ENTITIES
  0
LINE
  8
0
 62
     0
 10
0.0950846
 20
95.5075
 30
0.0
 11
95.3452
 21
95.5075
 31
0.0
  0
LINE
  8
0
 62
     0
 10
95.3452
 20
95.5075
 30
0.0
 11
95.3452
 21
0.257693
 31
0.0
  0
LINE
  8
0
 62
     0
 10
95.3452
 20
0.257693
 30
0.0
 11
0.0950846
 21
0.257693
 31
0.0
  0
LINE
  8
0
 62
     0
 10
0.0950846
 20
0.257693
 30
0.0
 11
0.0950846
 21
95.5075
 31
0.0
  0
LINE
  8
0
 62
     0
 10
12.1447
 20
16.7831
 30
0.0
 11
12.1447
 21
16.1837
 31
0.0
  0
LINE
  8
0
 62
     0
 10
12.1447
 20
16.1837
 30
0.0
 11
11.344
 21
16.1837
 31
0.0
  0
LINE
  8
0
 62
     0
 10
11.344
 20
16.1837
 30
0.0
 11
11.344
 21
3.38308
 31
0.0
  0
LINE
  8
0
 62
     0
 10
11.344
 20
3.38308
 30
0.0
 11
12.1447
 21
3.38308
 31
0.0
  0
LINE
  8
0
 62
     0
 10
12.1447
 20
3.38308
 30
0.0
 11
12.1447
 21
2.78364
 31
0.0
  0
LINE
  8
0
 62
     0
 10
12.1447
 20
2.78364
 30
0.0
 11
26.1441
 21
2.78364
 31
0.0
  0
LINE
  8
0
 62
     0
 10
26.1441
 20
2.78364
 30
0.0
 11
26.1441
 21
3.38308
 31
0.0
  0
LINE
  8
0
 62
     0
 10
26.1441
 20
3.38308
 30
0.0
 11
26.9448
 21
3.38308
 31
0.0
  0
LINE
  8
0
 62
     0
 10
26.9448
 20
3.38308
 30
0.0
 11
26.9448
 21
16.1837
 31
0.0
  0
LINE
  8
0
 62
     0
 10
26.9448
 20
16.1837
 30
0.0
 11
26.1441
 21
16.1837
 31
0.0
  0
LINE
  8
0
 62
     0
 10
26.1441
 20
16.1837
 30
0.0
 11
26.1441
 21
16.7831
 31
0.0
  0
LINE
  8
0
 62
     0
 10
26.1441
 20
16.7831
 30
0.0
 11
12.1447
 21
16.7831
 31
0.0
  0
LINE
  8
0
 62
     0
 10
31.1947
 20
16.7831
 30
0.0
 11
31.1947
 21
16.1837
 31
0.0
  0
LINE
  8
0
 62
     0
 10
31.1947
 20
16.1837
 30
0.0
 11
30.394
 21
16.1837
 31
0.0
  0
LINE
  8
0
 62
     0
 10
30.394
 20
16.1837
 30
0.0
 11
30.394
 21
3.38308
 31
0.0
  0
LINE
  8
0
 62
     0
 10
30.394
 20
3.38308
 30
0.0
 11
31.1947
 21
3.38308
 31
0.0
  0
LINE
  8
0
 62
     0
 10
31.1947
 20
3.38308
 30
0.0
 11
31.1947
 21
2.78364
 31
0.0
  0
LINE
  8
0
 62
     0
 10
31.1947
 20
2.78364
 30
0.0
 11
45.194
 21
2.78364
 31
0.0
  0
LINE
  8
0
 62
     0
 10
45.194
 20
2.78364
 30
0.0
 11
45.194
 21
3.38308
 31
0.0
  0
LINE
  8
0
 62
     0
 10
45.194
 20
3.38308
 30
0.0
 11
45.9948
 21
3.38308
 31
0.0
  0
LINE
  8
0
 62
     0
 10
45.9948
 20
3.38308
 30
0.0
 11
45.9948
 21
16.1837
 31
0.0
  0
LINE
  8
0
 62
     0
 10
45.9948
 20
16.1837
 30
0.0
 11
45.194
 21
16.1837
 31
0.0
  0
LINE
  8
0
 62
     0
 10
45.194
 20
16.1837
 30
0.0
 11
45.194
 21
16.7831
 31
0.0
  0
LINE
  8
0
 62
     0
 10
45.194
 20
16.7831
 30
0.0
 11
31.1947
 21
16.7831
 31
0.0
  0
LINE
  8
0
 62
     0
 10
50.2447
 20
16.7831
 30
0.0
 11
50.2447
 21
16.1837
 31
0.0
  0
LINE
  8
0
 62
     0
 10
50.2447
 20
16.1837
 30
0.0
 11
49.4439
 21
16.1837
 31
0.0
  0
LINE
  8
0
 62
     0
 10
49.4439
 20
16.1837
 30
0.0
 11
49.4439
 21
3.38308
 31
0.0
  0
LINE
  8
0
 62
     0
 10
49.4439
 20
3.38308
 30
0.0
 11
50.2447
 21
3.38308
 31
0.0
  0
LINE
  8
0
 62
     0
 10
50.2447
 20
3.38308
 30
0.0
 11
50.2447
 21
2.78364
 31
0.0
  0
LINE
  8
0
 62
     0
 10
50.2447
 20
2.78364
 30
0.0
 11
64.244
 21
2.78364
 31
0.0
  0
LINE
  8
0
 62
     0
 10
64.244
 20
2.78364
 30
0.0
 11
64.244
 21
3.38308
 31
0.0
  0
LINE
  8
0
 62
     0
 10
64.244
 20
3.38308
 30
0.0
 11
65.0448
 21
3.38308
 31
0.0
  0
LINE
  8
0
 62
     0
 10
65.0448
 20
3.38308
 30
0.0
 11
65.0448
 21
16.1837
 31
0.0
  0
LINE
  8
0
 62
     0
 10
65.0448
 20
16.1837
 30
0.0
 11
64.244
 21
16.1837
 31
0.0
  0
LINE
  8
0
 62
     0
 10
64.244
 20
16.1837
 30
0.0
 11
64.244
 21
16.7831
 31
0.0
  0
LINE
  8
0
 62
     0
 10
64.244
 20
16.7831
 30
0.0
 11
50.2447
 21
16.7831
 31
0.0
  0
LINE
  8
0
 62
     0
 10
69.2947
 20
16.7831
 30
0.0
 11
69.2947
 21
16.1837
 31
0.0
  0
LINE
  8
0
 62
     0
 10
69.2947
 20
16.1837
 30
0.0
 11
68.4939
 21
16.1837
 31
0.0
  0
LINE
  8
0
 62
     0
 10
68.4939
 20
16.1837
 30
0.0
 11
68.4939
 21
3.38308
 31
0.0
  0
LINE
  8
0
 62
     0
 10
68.4939
 20
3.38308
 30
0.0
 11
69.2947
 21
3.38308
 31
0.0
  0
LINE
  8
0
 62
     0
 10
69.2947
 20
3.38308
 30
0.0
 11
69.2947
 21
2.78364
 31
0.0
  0
LINE
  8
0
 62
     0
 10
69.2947
 20
2.78364
 30
0.0
 11
83.294
 21
2.78364
 31
0.0
  0
LINE
  8
0
 62
     0
 10
83.294
 20
2.78364
 30
0.0
 11
83.294
 21
3.38308
 31
0.0
  0
LINE
  8
0
 62
     0
 10
83.294
 20
3.38308
 30
0.0
 11
84.0948
 21
3.38308
 31
0.0
  0
LINE
  8
0
 62
     0
 10
84.0948
 20
3.38308
 30
0.0
 11
84.0948
 21
16.1837
 31
0.0
  0
LINE
  8
0
 62
     0
 10
84.0948
 20
16.1837
 30
0.0
 11
83.294
 21
16.1837
 31
0.0
  0
LINE
  8
0
 62
     0
 10
83.294
 20
16.1837
 30
0.0
 11
83.294
 21
16.7831
 31
0.0
  0
LINE
  8
0
 62
     0
 10
83.294
 20
16.7831
 30
0.0
 11
69.2947
 21
16.7831
 31
0.0
  0
LINE
  8
0
 62
     0
 10
2.61965
 20
35.833
 30
0.0
 11
2.61965
 21
35.2337
 31
0.0
  0
LINE
  8
0
 62
     0
 10
2.61965
 20
35.2337
 30
0.0
 11
1.81901
 21
35.2337
 31
0.0
  0
LINE
  8
0
 62
     0
 10
1.81901
 20
35.2337
 30
0.0
 11
1.81901
 21
22.4331
 31
0.0
  0
LINE
  8
0
 62
     0
 10
1.81901
 20
22.4331
 30
0.0
 11
2.61965
 21
22.4331
 31
0.0
  0
LINE
  8
0
 62
     0
 10
2.61965
 20
22.4331
 30
0.0
 11
2.61965
 21
21.8336
 31
0.0
  0
LINE
  8
0
 62
     0
 10
2.61965
 20
21.8336
 30
0.0
 11
16.6192
 21
21.8336
 31
0.0
  0
LINE
  8
0
 62
     0
 10
16.6192
 20
21.8336
 30
0.0
 11
16.6192
 21
22.4331
 31
0.0
  0
LINE
  8
0
 62
     0
 10
16.6192
 20
22.4331
 30
0.0
 11
17.4198
 21
22.4331
 31
0.0
  0
LINE
  8
0
 62
     0
 10
17.4198
 20
22.4331
 30
0.0
 11
17.4198
 21
35.2337
 31
0.0
  0
LINE
  8
0
 62
     0
 10
17.4198
 20
35.2337
 30
0.0
 11
16.6192
 21
35.2337
 31
0.0
  0
LINE
  8
0
 62
     0
 10
16.6192
 20
35.2337
 30
0.0
 11
16.6192
 21
35.833
 31
0.0
  0
LINE
  8
0
 62
     0
 10
16.6192
 20
35.833
 30
0.0
 11
2.61965
 21
35.833
 31
0.0
  0
LINE
  8
0
 62
     0
 10
21.6697
 20
35.833
 30
0.0
 11
21.6697
 21
35.2337
 31
0.0
  0
LINE
  8
0
 62
     0
 10
21.6697
 20
35.2337
 30
0.0
 11
20.869
 21
35.2337
 31
0.0
  0
LINE
  8
0
 62
     0
 10
20.869
 20
35.2337
 30
0.0
 11
20.869
 21
22.4331
 31
0.0
  0
LINE
  8
0
 62
     0
 10
20.869
 20
22.4331
 30
0.0
 11
21.6697
 21
22.4331
 31
0.0
  0
LINE
  8
0
 62
     0
 10
21.6697
 20
22.4331
 30
0.0
 11
21.6697
 21
21.8336
 31
0.0
  0
LINE
  8
0
 62
     0
 10
21.6697
 20
21.8336
 30
0.0
 11
35.669
 21
21.8336
 31
0.0
  0
LINE
  8
0
 62
     0
 10
35.669
 20
21.8336
 30
0.0
 11
35.669
 21
22.4331
 31
0.0
  0
LINE
  8
0
 62
     0
 10
35.669
 20
22.4331
 30
0.0
 11
36.4698
 21
22.4331
 31
0.0
  0
LINE
  8
0
 62
     0
 10
36.4698
 20
22.4331
 30
0.0
 11
36.4698
 21
35.2337
 31
0.0
  0
LINE
  8
0
 62
     0
 10
36.4698
 20
35.2337
 30
0.0
 11
35.669
 21
35.2337
 31
0.0
  0
LINE
  8
0
 62
     0
 10
35.669
 20
35.2337
 30
0.0
 11
35.669
 21
35.833
 31
0.0
  0
LINE
  8
0
 62
     0
 10
35.669
 20
35.833
 30
0.0
 11
21.6697
 21
35.833
 31
0.0
  0
LINE
  8
0
 62
     0
 10
40.7197
 20
35.833
 30
0.0
 11
40.7197
 21
35.2337
 31
0.0
  0
LINE
  8
0
 62
     0
 10
40.7197
 20
35.2337
 30
0.0
 11
39.9189
 21
35.2337
 31
0.0
  0
LINE
  8
0
 62
     0
 10
39.9189
 20
35.2337
 30
0.0
 11
39.9189
 21
22.4331
 31
0.0
  0
LINE
  8
0
 62
     0
 10
39.9189
 20
22.4331
 30
0.0
 11
40.7197
 21
22.4331
 31
0.0
  0
LINE
  8
0
 62
     0
 10
40.7197
 20
22.4331
 30
0.0
 11
40.7197
 21
21.8336
 31
0.0
  0
LINE
  8
0
 62
     0
 10
40.7197
 20
21.8336
 30
0.0
 11
54.719
 21
21.8336
 31
0.0
  0
LINE
  8
0
 62
     0
 10
54.719
 20
21.8336
 30
0.0
 11
54.719
 21
22.4331
 31
0.0
  0
LINE
  8
0
 62
     0
 10
54.719
 20
22.4331
 30
0.0
 11
55.5198
 21
22.4331
 31
0.0
  0
LINE
  8
0
 62
     0
 10
55.5198
 20
22.4331
 30
0.0
 11
55.5198
 21
35.2337
 31
0.0
  0
LINE
  8
0
 62
     0
 10
55.5198
 20
35.2337
 30
0.0
 11
54.719
 21
35.2337
 31
0.0
  0
LINE
  8
0
 62
     0
 10
54.719
 20
35.2337
 30
0.0
 11
54.719
 21
35.833
 31
0.0
  0
LINE
  8
0
 62
     0
 10
54.719
 20
35.833
 30
0.0
 11
40.7197
 21
35.833
 31
0.0
  0
LINE
  8
0
 62
     0
 10
59.7697
 20
35.833
 30
0.0
 11
59.7697
 21
35.2337
 31
0.0
  0
LINE
  8
0
 62
     0
 10
59.7697
 20
35.2337
 30
0.0
 11
58.9689
 21
35.2337
 31
0.0
  0
LINE
  8
0
 62
     0
 10
58.9689
 20
35.2337
 30
0.0
 11
58.9689
 21
22.4331
 31
0.0
  0
LINE
  8
0
 62
     0
 10
58.9689
 20
22.4331
 30
0.0
 11
59.7697
 21
22.4331
 31
0.0
  0
LINE
  8
0
 62
     0
 10
59.7697
 20
22.4331
 30
0.0
 11
59.7697
 21
21.8336
 31
0.0
  0
LINE
  8
0
 62
     0
 10
59.7697
 20
21.8336
 30
0.0
 11
73.769
 21
21.8336
 31
0.0
  0
LINE
  8
0
 62
     0
 10
73.769
 20
21.8336
 30
0.0
 11
73.769
 21
22.4331
 31
0.0
  0
LINE
  8
0
 62
     0
 10
73.769
 20
22.4331
 30
0.0
 11
74.5698
 21
22.4331
 31
0.0
  0
LINE
  8
0
 62
     0
 10
74.5698
 20
22.4331
 30
0.0
 11
74.5698
 21
35.2337
 31
0.0
  0
LINE
  8
0
 62
     0
 10
74.5698
 20
35.2337
 30
0.0
 11
73.769
 21
35.2337
 31
0.0
  0
LINE
  8
0
 62
     0
 10
73.769
 20
35.2337
 30
0.0
 11
73.769
 21
35.833
 31
0.0
  0
LINE
  8
0
 62
     0
 10
73.769
 20
35.833
 30
0.0
 11
59.7697
 21
35.833
 31
0.0
  0
LINE
  8
0
 62
     0
 10
78.8197
 20
35.833
 30
0.0
 11
78.8197
 21
35.2337
 31
0.0
  0
LINE
  8
0
 62
     0
 10
78.8197
 20
35.2337
 30
0.0
 11
78.0189
 21
35.2337
 31
0.0
  0
LINE
  8
0
 62
     0
 10
78.0189
 20
35.2337
 30
0.0
 11
78.0189
 21
22.4331
 31
0.0
  0
LINE
  8
0
 62
     0
 10
78.0189
 20
22.4331
 30
0.0
 11
78.8197
 21
22.4331
 31
0.0
  0
LINE
  8
0
 62
     0
 10
78.8197
 20
22.4331
 30
0.0
 11
78.8197
 21
21.8336
 31
0.0
  0
LINE
  8
0
 62
     0
 10
78.8197
 20
21.8336
 30
0.0
 11
92.819
 21
21.8336
 31
0.0
  0
LINE
  8
0
 62
     0
 10
92.819
 20
21.8336
 30
0.0
 11
92.819
 21
22.4331
 31
0.0
  0
LINE
  8
0
 62
     0
 10
92.819
 20
22.4331
 30
0.0
 11
93.6184
 21
22.4331
 31
0.0
  0
LINE
  8
0
 62
     0
 10
93.6184
 20
22.4331
 30
0.0
 11
93.6184
 21
35.2337
 31
0.0
  0
LINE
  8
0
 62
     0
 10
93.6184
 20
35.2337
 30
0.0
 11
92.819
 21
35.2337
 31
0.0
  0
LINE
  8
0
 62
     0
 10
92.819
 20
35.2337
 30
0.0
 11
92.819
 21
35.833
 31
0.0
  0
LINE
  8
0
 62
     0
 10
92.819
 20
35.833
 30
0.0
 11
78.8197
 21
35.833
 31
0.0
  0
LINE
  8
0
 62
     0
 10
2.61965
 20
54.8831
 30
0.0
 11
2.61965
 21
54.2837
 31
0.0
  0
LINE
  8
0
 62
     0
 10
2.61965
 20
54.2837
 30
0.0
 11
1.81901
 21
54.2837
 31
0.0
  0
LINE
  8
0
 62
     0
 10
1.81901
 20
54.2837
 30
0.0
 11
1.81901
 21
41.4831
 31
0.0
  0
LINE
  8
0
 62
     0
 10
1.81901
 20
41.4831
 30
0.0
 11
2.61965
 21
41.4831
 31
0.0
  0
LINE
  8
0
 62
     0
 10
2.61965
 20
41.4831
 30
0.0
 11
2.61965
 21
40.8838
 31
0.0
  0
LINE
  8
0
 62
     0
 10
2.61965
 20
40.8838
 30
0.0
 11
16.6192
 21
40.8838
 31
0.0
  0
LINE
  8
0
 62
     0
 10
16.6192
 20
40.8838
 30
0.0
 11
16.6192
 21
41.4831
 31
0.0
  0
LINE
  8
0
 62
     0
 10
16.6192
 20
41.4831
 30
0.0
 11
17.4198
 21
41.4831
 31
0.0
  0
LINE
  8
0
 62
     0
 10
17.4198
 20
41.4831
 30
0.0
 11
17.4198
 21
54.2837
 31
0.0
  0
LINE
  8
0
 62
     0
 10
17.4198
 20
54.2837
 30
0.0
 11
16.6192
 21
54.2837
 31
0.0
  0
LINE
  8
0
 62
     0
 10
16.6192
 20
54.2837
 30
0.0
 11
16.6192
 21
54.8831
 31
0.0
  0
LINE
  8
0
 62
     0
 10
16.6192
 20
54.8831
 30
0.0
 11
2.61965
 21
54.8831
 31
0.0
  0
LINE
  8
0
 62
     0
 10
21.6697
 20
54.8831
 30
0.0
 11
21.6697
 21
54.2837
 31
0.0
  0
LINE
  8
0
 62
     0
 10
21.6697
 20
54.2837
 30
0.0
 11
20.869
 21
54.2837
 31
0.0
  0
LINE
  8
0
 62
     0
 10
20.869
 20
54.2837
 30
0.0
 11
20.869
 21
41.4831
 31
0.0
  0
LINE
  8
0
 62
     0
 10
20.869
 20
41.4831
 30
0.0
 11
21.6697
 21
41.4831
 31
0.0
  0
LINE
  8
0
 62
     0
 10
21.6697
 20
41.4831
 30
0.0
 11
21.6697
 21
40.8838
 31
0.0
  0
LINE
  8
0
 62
     0
 10
21.6697
 20
40.8838
 30
0.0
 11
35.669
 21
40.8838
 31
0.0
  0
LINE
  8
0
 62
     0
 10
35.669
 20
40.8838
 30
0.0
 11
35.669
 21
41.4831
 31
0.0
  0
LINE
  8
0
 62
     0
 10
35.669
 20
41.4831
 30
0.0
 11
36.4698
 21
41.4831
 31
0.0
  0
LINE
  8
0
 62
     0
 10
36.4698
 20
41.4831
 30
0.0
 11
36.4698
 21
54.2837
 31
0.0
  0
LINE
  8
0
 62
     0
 10
36.4698
 20
54.2837
 30
0.0
 11
35.669
 21
54.2837
 31
0.0
  0
LINE
  8
0
 62
     0
 10
35.669
 20
54.2837
 30
0.0
 11
35.669
 21
54.8831
 31
0.0
  0
LINE
  8
0
 62
     0
 10
35.669
 20
54.8831
 30
0.0
 11
21.6697
 21
54.8831
 31
0.0
  0
LINE
  8
0
 62
     0
 10
40.7197
 20
54.8831
 30
0.0
 11
40.7197
 21
54.2837
 31
0.0
  0
LINE
  8
0
 62
     0
 10
40.7197
 20
54.2837
 30
0.0
 11
39.9189
 21
54.2837
 31
0.0
  0
LINE
  8
0
 62
     0
 10
39.9189
 20
54.2837
 30
0.0
 11
39.9189
 21
41.4831
 31
0.0
  0
LINE
  8
0
 62
     0
 10
39.9189
 20
41.4831
 30
0.0
 11
40.7197
 21
41.4831
 31
0.0
  0
LINE
  8
0
 62
     0
 10
40.7197
 20
41.4831
 30
0.0
 11
40.7197
 21
40.8838
 31
0.0
  0
LINE
  8
0
 62
     0
 10
40.7197
 20
40.8838
 30
0.0
 11
54.719
 21
40.8838
 31
0.0
  0
LINE
  8
0
 62
     0
 10
54.719
 20
40.8838
 30
0.0
 11
54.719
 21
41.4831
 31
0.0
  0
LINE
  8
0
 62
     0
 10
54.719
 20
41.4831
 30
0.0
 11
55.5198
 21
41.4831
 31
0.0
  0
LINE
  8
0
 62
     0
 10
55.5198
 20
41.4831
 30
0.0
 11
55.5198
 21
54.2837
 31
0.0
  0
LINE
  8
0
 62
     0
 10
55.5198
 20
54.2837
 30
0.0
 11
54.719
 21
54.2837
 31
0.0
  0
LINE
  8
0
 62
     0
 10
54.719
 20
54.2837
 30
0.0
 11
54.719
 21
54.8831
 31
0.0
  0
LINE
  8
0
 62
     0
 10
54.719
 20
54.8831
 30
0.0
 11
40.7197
 21
54.8831
 31
0.0
  0
LINE
  8
0
 62
     0
 10
59.7697
 20
54.8831
 30
0.0
 11
59.7697
 21
54.2837
 31
0.0
  0
LINE
  8
0
 62
     0
 10
59.7697
 20
54.2837
 30
0.0
 11
58.9689
 21
54.2837
 31
0.0
  0
LINE
  8
0
 62
     0
 10
58.9689
 20
54.2837
 30
0.0
 11
58.9689
 21
41.4831
 31
0.0
  0
LINE
  8
0
 62
     0
 10
58.9689
 20
41.4831
 30
0.0
 11
59.7697
 21
41.4831
 31
0.0
  0
LINE
  8
0
 62
     0
 10
59.7697
 20
41.4831
 30
0.0
 11
59.7697
 21
40.8838
 31
0.0
  0
LINE
  8
0
 62
     0
 10
59.7697
 20
40.8838
 30
0.0
 11
73.769
 21
40.8838
 31
0.0
  0
LINE
  8
0
 62
     0
 10
73.769
 20
40.8838
 30
0.0
 11
73.769
 21
41.4831
 31
0.0
  0
LINE
  8
0
 62
     0
 10
73.769
 20
41.4831
 30
0.0
 11
74.5698
 21
41.4831
 31
0.0
  0
LINE
  8
0
 62
     0
 10
74.5698
 20
41.4831
 30
0.0
 11
74.5698
 21
54.2837
 31
0.0
  0
LINE
  8
0
 62
     0
 10
74.5698
 20
54.2837
 30
0.0
 11
73.769
 21
54.2837
 31
0.0
  0
LINE
  8
0
 62
     0
 10
73.769
 20
54.2837
 30
0.0
 11
73.769
 21
54.8831
 31
0.0
  0
LINE
  8
0
 62
     0
 10
73.769
 20
54.8831
 30
0.0
 11
59.7697
 21
54.8831
 31
0.0
  0
LINE
  8
0
 62
     0
 10
78.8197
 20
54.8831
 30
0.0
 11
78.8197
 21
54.2837
 31
0.0
  0
LINE
  8
0
 62
     0
 10
78.8197
 20
54.2837
 30
0.0
 11
78.0189
 21
54.2837
 31
0.0
  0
LINE
  8
0
 62
     0
 10
78.0189
 20
54.2837
 30
0.0
 11
78.0189
 21
41.4831
 31
0.0
  0
LINE
  8
0
 62
     0
 10
78.0189
 20
41.4831
 30
0.0
 11
78.8197
 21
41.4831
 31
0.0
  0
LINE
  8
0
 62
     0
 10
78.8197
 20
41.4831
 30
0.0
 11
78.8197
 21
40.8838
 31
0.0
  0
LINE
  8
0
 62
     0
 10
78.8197
 20
40.8838
 30
0.0
 11
92.819
 21
40.8838
 31
0.0
  0
LINE
  8
0
 62
     0
 10
92.819
 20
40.8838
 30
0.0
 11
92.819
 21
41.4831
 31
0.0
  0
LINE
  8
0
 62
     0
 10
92.819
 20
41.4831
 30
0.0
 11
93.6184
 21
41.4831
 31
0.0
  0
LINE
  8
0
 62
     0
 10
93.6184
 20
41.4831
 30
0.0
 11
93.6184
 21
54.2837
 31
0.0
  0
LINE
  8
0
 62
     0
 10
93.6184
 20
54.2837
 30
0.0
 11
92.819
 21
54.2837
 31
0.0
  0
LINE
  8
0
 62
     0
 10
92.819
 20
54.2837
 30
0.0
 11
92.819
 21
54.8831
 31
0.0
  0
LINE
  8
0
 62
     0
 10
92.819
 20
54.8831
 30
0.0
 11
78.8197
 21
54.8831
 31
0.0
  0
LINE
  8
0
 62
     0
 10
2.61965
 20
73.9331
 30
0.0
 11
2.61965
 21
73.3337
 31
0.0
  0
LINE
  8
0
 62
     0
 10
2.61965
 20
73.3337
 30
0.0
 11
1.81901
 21
73.3337
 31
0.0
  0
LINE
  8
0
 62
     0
 10
1.81901
 20
73.3337
 30
0.0
 11
1.81901
 21
60.5331
 31
0.0
  0
LINE
  8
0
 62
     0
 10
1.81901
 20
60.5331
 30
0.0
 11
2.61965
 21
60.5331
 31
0.0
  0
LINE
  8
0
 62
     0
 10
2.61965
 20
60.5331
 30
0.0
 11
2.61965
 21
59.9338
 31
0.0
  0
LINE
  8
0
 62
     0
 10
2.61965
 20
59.9338
 30
0.0
 11
16.6192
 21
59.9338
 31
0.0
  0
LINE
  8
0
 62
     0
 10
16.6192
 20
59.9338
 30
0.0
 11
16.6192
 21
60.5331
 31
0.0
  0
LINE
  8
0
 62
     0
 10
16.6192
 20
60.5331
 30
0.0
 11
17.4198
 21
60.5331
 31
0.0
  0
LINE
  8
0
 62
     0
 10
17.4198
 20
60.5331
 30
0.0
 11
17.4198
 21
73.3337
 31
0.0
  0
LINE
  8
0
 62
     0
 10
17.4198
 20
73.3337
 30
0.0
 11
16.6192
 21
73.3337
 31
0.0
  0
LINE
  8
0
 62
     0
 10
16.6192
 20
73.3337
 30
0.0
 11
16.6192
 21
73.9331
 31
0.0
  0
LINE
  8
0
 62
     0
 10
16.6192
 20
73.9331
 30
0.0
 11
2.61965
 21
73.9331
 31
0.0
  0
LINE
  8
0
 62
     0
 10
21.6697
 20
73.9331
 30
0.0
 11
21.6697
 21
73.3337
 31
0.0
  0
LINE
  8
0
 62
     0
 10
21.6697
 20
73.3337
 30
0.0
 11
20.869
 21
73.3337
 31
0.0
  0
LINE
  8
0
 62
     0
 10
20.869
 20
73.3337
 30
0.0
 11
20.869
 21
60.5331
 31
0.0
  0
LINE
  8
0
 62
     0
 10
20.869
 20
60.5331
 30
0.0
 11
21.6697
 21
60.5331
 31
0.0
  0
LINE
  8
0
 62
     0
 10
21.6697
 20
60.5331
 30
0.0
 11
21.6697
 21
59.9338
 31
0.0
  0
LINE
  8
0
 62
     0
 10
21.6697
 20
59.9338
 30
0.0
 11
35.669
 21
59.9338
 31
0.0
  0
LINE
  8
0
 62
     0
 10
35.669
 20
59.9338
 30
0.0
 11
35.669
 21
60.5331
 31
0.0
  0
LINE
  8
0
 62
     0
 10
35.669
 20
60.5331
 30
0.0
 11
36.4698
 21
60.5331
 31
0.0
  0
LINE
  8
0
 62
     0
 10
36.4698
 20
60.5331
 30
0.0
 11
36.4698
 21
73.3337
 31
0.0
  0
LINE
  8
0
 62
     0
 10
36.4698
 20
73.3337
 30
0.0
 11
35.669
 21
73.3337
 31
0.0
  0
LINE
  8
0
 62
     0
 10
35.669
 20
73.3337
 30
0.0
 11
35.669
 21
73.9331
 31
0.0
  0
LINE
  8
0
 62
     0
 10
35.669
 20
73.9331
 30
0.0
 11
21.6697
 21
73.9331
 31
0.0
  0
LINE
  8
0
 62
     0
 10
40.7197
 20
73.9331
 30
0.0
 11
40.7197
 21
73.3337
 31
0.0
  0
LINE
  8
0
 62
     0
 10
40.7197
 20
73.3337
 30
0.0
 11
39.9189
 21
73.3337
 31
0.0
  0
LINE
  8
0
 62
     0
 10
39.9189
 20
73.3337
 30
0.0
 11
39.9189
 21
60.5331
 31
0.0
  0
LINE
  8
0
 62
     0
 10
39.9189
 20
60.5331
 30
0.0
 11
40.7197
 21
60.5331
 31
0.0
  0
LINE
  8
0
 62
     0
 10
40.7197
 20
60.5331
 30
0.0
 11
40.7197
 21
59.9338
 31
0.0
  0
LINE
  8
0
 62
     0
 10
40.7197
 20
59.9338
 30
0.0
 11
54.719
 21
59.9338
 31
0.0
  0
LINE
  8
0
 62
     0
 10
54.719
 20
59.9338
 30
0.0
 11
54.719
 21
60.5331
 31
0.0
  0
LINE
  8
0
 62
     0
 10
54.719
 20
60.5331
 30
0.0
 11
55.5198
 21
60.5331
 31
0.0
  0
LINE
  8
0
 62
     0
 10
55.5198
 20
60.5331
 30
0.0
 11
55.5198
 21
73.3337
 31
0.0
  0
LINE
  8
0
 62
     0
 10
55.5198
 20
73.3337
 30
0.0
 11
54.719
 21
73.3337
 31
0.0
  0
LINE
  8
0
 62
     0
 10
54.719
 20
73.3337
 30
0.0
 11
54.719
 21
73.9331
 31
0.0
  0
LINE
  8
0
 62
     0
 10
54.719
 20
73.9331
 30
0.0
 11
40.7197
 21
73.9331
 31
0.0
  0
LINE
  8
0
 62
     0
 10
59.7697
 20
73.9331
 30
0.0
 11
59.7697
 21
73.3337
 31
0.0
  0
LINE
  8
0
 62
     0
 10
59.7697
 20
73.3337
 30
0.0
 11
58.9689
 21
73.3337
 31
0.0
  0
LINE
  8
0
 62
     0
 10
58.9689
 20
73.3337
 30
0.0
 11
58.9689
 21
60.5331
 31
0.0
  0
LINE
  8
0
 62
     0
 10
58.9689
 20
60.5331
 30
0.0
 11
59.7697
 21
60.5331
 31
0.0
  0
LINE
  8
0
 62
     0
 10
59.7697
 20
60.5331
 30
0.0
 11
59.7697
 21
59.9338
 31
0.0
  0
LINE
  8
0
 62
     0
 10
59.7697
 20
59.9338
 30
0.0
 11
73.769
 21
59.9338
 31
0.0
  0
LINE
  8
0
 62
     0
 10
73.769
 20
59.9338
 30
0.0
 11
73.769
 21
60.5331
 31
0.0
  0
LINE
  8
0
 62
     0
 10
73.769
 20
60.5331
 30
0.0
 11
74.5698
 21
60.5331
 31
0.0
  0
LINE
  8
0
 62
     0
 10
74.5698
 20
60.5331
 30
0.0
 11
74.5698
 21
73.3337
 31
0.0
  0
LINE
  8
0
 62
     0
 10
74.5698
 20
73.3337
 30
0.0
 11
73.769
 21
73.3337
 31
0.0
  0
LINE
  8
0
 62
     0
 10
73.769
 20
73.3337
 30
0.0
 11
73.769
 21
73.9331
 31
0.0
  0
LINE
  8
0
 62
     0
 10
73.769
 20
73.9331
 30
0.0
 11
59.7697
 21
73.9331
 31
0.0
  0
LINE
  8
0
 62
     0
 10
78.8197
 20
73.9331
 30
0.0
 11
78.8197
 21
73.3337
 31
0.0
  0
LINE
  8
0
 62
     0
 10
78.8197
 20
73.3337
 30
0.0
 11
78.0189
 21
73.3337
 31
0.0
  0
LINE
  8
0
 62
     0
 10
78.0189
 20
73.3337
 30
0.0
 11
78.0189
 21
60.5331
 31
0.0
  0
LINE
  8
0
 62
     0
 10
78.0189
 20
60.5331
 30
0.0
 11
78.8197
 21
60.5331
 31
0.0
  0
LINE
  8
0
 62
     0
 10
78.8197
 20
60.5331
 30
0.0
 11
78.8197
 21
59.9338
 31
0.0
  0
LINE
  8
0
 62
     0
 10
78.8197
 20
59.9338
 30
0.0
 11
92.819
 21
59.9338
 31
0.0
  0
LINE
  8
0
 62
     0
 10
92.819
 20
59.9338
 30
0.0
 11
92.819
 21
60.5331
 31
0.0
  0
LINE
  8
0
 62
     0
 10
92.819
 20
60.5331
 30
0.0
 11
93.6184
 21
60.5331
 31
0.0
  0
LINE
  8
0
 62
     0
 10
93.6184
 20
60.5331
 30
0.0
 11
93.6184
 21
73.3337
 31
0.0
  0
LINE
  8
0
 62
     0
 10
93.6184
 20
73.3337
 30
0.0
 11
92.819
 21
73.3337
 31
0.0
  0
LINE
  8
0
 62
     0
 10
92.819
 20
73.3337
 30
0.0
 11
92.819
 21
73.9331
 31
0.0
  0
LINE
  8
0
 62
     0
 10
92.819
 20
73.9331
 30
0.0
 11
78.8197
 21
73.9331
 31
0.0
  0
LINE
  8
0
 62
     0
 10
2.61965
 20
92.9831
 30
0.0
 11
2.61965
 21
92.3837
 31
0.0
  0
LINE
  8
0
 62
     0
 10
2.61965
 20
92.3837
 30
0.0
 11
1.81901
 21
92.3837
 31
0.0
  0
LINE
  8
0
 62
     0
 10
1.81901
 20
92.3837
 30
0.0
 11
1.81901
 21
79.5831
 31
0.0
  0
LINE
  8
0
 62
     0
 10
1.81901
 20
79.5831
 30
0.0
 11
2.61965
 21
79.5831
 31
0.0
  0
LINE
  8
0
 62
     0
 10
2.61965
 20
79.5831
 30
0.0
 11
2.61965
 21
78.9838
 31
0.0
  0
LINE
  8
0
 62
     0
 10
2.61965
 20
78.9838
 30
0.0
 11
16.6192
 21
78.9838
 31
0.0
  0
LINE
  8
0
 62
     0
 10
16.6192
 20
78.9838
 30
0.0
 11
16.6192
 21
79.5831
 31
0.0
  0
LINE
  8
0
 62
     0
 10
16.6192
 20
79.5831
 30
0.0
 11
17.4198
 21
79.5831
 31
0.0
  0
LINE
  8
0
 62
     0
 10
17.4198
 20
79.5831
 30
0.0
 11
17.4198
 21
92.3837
 31
0.0
  0
LINE
  8
0
 62
     0
 10
17.4198
 20
92.3837
 30
0.0
 11
16.6192
 21
92.3837
 31
0.0
  0
LINE
  8
0
 62
     0
 10
16.6192
 20
92.3837
 30
0.0
 11
16.6192
 21
92.9831
 31
0.0
  0
LINE
  8
0
 62
     0
 10
16.6192
 20
92.9831
 30
0.0
 11
2.61965
 21
92.9831
 31
0.0
  0
LINE
  8
0
 62
     0
 10
21.6697
 20
92.9831
 30
0.0
 11
21.6697
 21
92.3837
 31
0.0
  0
LINE
  8
0
 62
     0
 10
21.6697
 20
92.3837
 30
0.0
 11
20.869
 21
92.3837
 31
0.0
  0
LINE
  8
0
 62
     0
 10
20.869
 20
92.3837
 30
0.0
 11
20.869
 21
79.5831
 31
0.0
  0
LINE
  8
0
 62
     0
 10
20.869
 20
79.5831
 30
0.0
 11
21.6697
 21
79.5831
 31
0.0
  0
LINE
  8
0
 62
     0
 10
21.6697
 20
79.5831
 30
0.0
 11
21.6697
 21
78.9838
 31
0.0
  0
LINE
  8
0
 62
     0
 10
21.6697
 20
78.9838
 30
0.0
 11
35.669
 21
78.9838
 31
0.0
  0
LINE
  8
0
 62
     0
 10
35.669
 20
78.9838
 30
0.0
 11
35.669
 21
79.5831
 31
0.0
  0
LINE
  8
0
 62
     0
 10
35.669
 20
79.5831
 30
0.0
 11
36.4698
 21
79.5831
 31
0.0
  0
LINE
  8
0
 62
     0
 10
36.4698
 20
79.5831
 30
0.0
 11
36.4698
 21
92.3837
 31
0.0
  0
LINE
  8
0
 62
     0
 10
36.4698
 20
92.3837
 30
0.0
 11
35.669
 21
92.3837
 31
0.0
  0
LINE
  8
0
 62
     0
 10
35.669
 20
92.3837
 30
0.0
 11
35.669
 21
92.9831
 31
0.0
  0
LINE
  8
0
 62
     0
 10
35.669
 20
92.9831
 30
0.0
 11
21.6697
 21
92.9831
 31
0.0
  0
LINE
  8
0
 62
     0
 10
40.7197
 20
92.9831
 30
0.0
 11
40.7197
 21
92.3837
 31
0.0
  0
LINE
  8
0
 62
     0
 10
40.7197
 20
92.3837
 30
0.0
 11
39.9189
 21
92.3837
 31
0.0
  0
LINE
  8
0
 62
     0
 10
39.9189
 20
92.3837
 30
0.0
 11
39.9189
 21
79.5831
 31
0.0
  0
LINE
  8
0
 62
     0
 10
39.9189
 20
79.5831
 30
0.0
 11
40.7197
 21
79.5831
 31
0.0
  0
LINE
  8
0
 62
     0
 10
40.7197
 20
79.5831
 30
0.0
 11
40.7197
 21
78.9838
 31
0.0
  0
LINE
  8
0
 62
     0
 10
40.7197
 20
78.9838
 30
0.0
 11
54.719
 21
78.9838
 31
0.0
  0
LINE
  8
0
 62
     0
 10
54.719
 20
78.9838
 30
0.0
 11
54.719
 21
79.5831
 31
0.0
  0
LINE
  8
0
 62
     0
 10
54.719
 20
79.5831
 30
0.0
 11
55.5198
 21
79.5831
 31
0.0
  0
LINE
  8
0
 62
     0
 10
55.5198
 20
79.5831
 30
0.0
 11
55.5198
 21
92.3837
 31
0.0
  0
LINE
  8
0
 62
     0
 10
55.5198
 20
92.3837
 30
0.0
 11
54.719
 21
92.3837
 31
0.0
  0
LINE
  8
0
 62
     0
 10
54.719
 20
92.3837
 30
0.0
 11
54.719
 21
92.9831
 31
0.0
  0
LINE
  8
0
 62
     0
 10
54.719
 20
92.9831
 30
0.0
 11
40.7197
 21
92.9831
 31
0.0
  0
LINE
  8
0
 62
     0
 10
59.7697
 20
92.9831
 30
0.0
 11
59.7697
 21
92.3837
 31
0.0
  0
LINE
  8
0
 62
     0
 10
59.7697
 20
92.3837
 30
0.0
 11
58.9689
 21
92.3837
 31
0.0
  0
LINE
  8
0
 62
     0
 10
58.9689
 20
92.3837
 30
0.0
 11
58.9689
 21
79.5831
 31
0.0
  0
LINE
  8
0
 62
     0
 10
58.9689
 20
79.5831
 30
0.0
 11
59.7697
 21
79.5831
 31
0.0
  0
LINE
  8
0
 62
     0
 10
59.7697
 20
79.5831
 30
0.0
 11
59.7697
 21
78.9838
 31
0.0
  0
LINE
  8
0
 62
     0
 10
59.7697
 20
78.9838
 30
0.0
 11
73.769
 21
78.9838
 31
0.0
  0
LINE
  8
0
 62
     0
 10
73.769
 20
78.9838
 30
0.0
 11
73.769
 21
79.5831
 31
0.0
  0
LINE
  8
0
 62
     0
 10
73.769
 20
79.5831
 30
0.0
 11
74.5698
 21
79.5831
 31
0.0
  0
LINE
  8
0
 62
     0
 10
74.5698
 20
79.5831
 30
0.0
 11
74.5698
 21
92.3837
 31
0.0
  0
LINE
  8
0
 62
     0
 10
74.5698
 20
92.3837
 30
0.0
 11
73.769
 21
92.3837
 31
0.0
  0
LINE
  8
0
 62
     0
 10
73.769
 20
92.3837
 30
0.0
 11
73.769
 21
92.9831
 31
0.0
  0
LINE
  8
0
 62
     0
 10
73.769
 20
92.9831
 30
0.0
 11
59.7697
 21
92.9831
 31
0.0
  0
LINE
  8
0
 62
     0
 10
78.8197
 20
92.9831
 30
0.0
 11
78.8197
 21
92.3837
 31
0.0
  0
LINE
  8
0
 62
     0
 10
78.8197
 20
92.3837
 30
0.0
 11
78.0189
 21
92.3837
 31
0.0
  0
LINE
  8
0
 62
     0
 10
78.0189
 20
92.3837
 30
0.0
 11
78.0189
 21
79.5831
 31
0.0
  0
LINE
  8
0
 62
     0
 10
78.0189
 20
79.5831
 30
0.0
 11
78.8197
 21
79.5831
 31
0.0
  0
LINE
  8
0
 62
     0
 10
78.8197
 20
79.5831
 30
0.0
 11
78.8197
 21
78.9838
 31
0.0
  0
LINE
  8
0
 62
     0
 10
78.8197
 20
78.9838
 30
0.0
 11
92.819
 21
78.9838
 31
0.0
  0
LINE
  8
0
 62
     0
 10
92.819
 20
78.9838
 30
0.0
 11
92.819
 21
79.5831
 31
0.0
  0
LINE
  8
0
 62
     0
 10
92.819
 20
79.5831
 30
0.0
 11
93.6184
 21
79.5831
 31
0.0
  0
LINE
  8
0
 62
     0
 10
93.6184
 20
79.5831
 30
0.0
 11
93.6184
 21
92.3837
 31
0.0
  0
LINE
  8
0
 62
     0
 10
93.6184
 20
92.3837
 30
0.0
 11
92.819
 21
92.3837
 31
0.0
  0
LINE
  8
0
 62
     0
 10
92.819
 20
92.3837
 30
0.0
 11
92.819
 21
92.9831
 31
0.0
  0
LINE
  8
0
 62
     0
 10
92.819
 20
92.9831
 30
0.0
 11
78.8197
 21
92.9831
 31
0.0
  0
ENDSEC
  0
EOF
